<svg width="36" height="36" viewBox="0 0 36 36" fill="none" xmlns="http://www.w3.org/2000/svg">
<rect width="36" height="36" rx="12" fill="#F5F5F5"/>
<path d="M25.5784 14.2811L22.3441 11.0467C21.9924 10.6951 21.5155 10.4976 21.0183 10.4976C20.521 10.4976 20.0441 10.6951 19.6925 11.0467L10.4222 20.317C10.0706 20.6686 9.87305 21.1455 9.87305 21.6428C9.87305 22.14 10.0706 22.6169 10.4222 22.9686L12.7706 25.317C12.8289 25.3752 12.8981 25.4213 12.9742 25.4527C13.0504 25.4841 13.132 25.5001 13.2144 25.4998H24.8753C25.0411 25.4998 25.2 25.434 25.3172 25.3168C25.4345 25.1995 25.5003 25.0406 25.5003 24.8748C25.5003 24.7091 25.4345 24.5501 25.3172 24.4329C25.2 24.3157 25.0411 24.2498 24.8753 24.2498H18.2581L25.5784 16.9326C25.93 16.581 26.1276 16.1041 26.1276 15.6068C26.1276 15.1096 25.93 14.6327 25.5784 14.2811ZM24.6933 16.0467L20.5003 20.2412L16.3839 16.1248L20.5784 11.9326C20.6365 11.8745 20.7054 11.8284 20.7813 11.797C20.8572 11.7655 20.9385 11.7493 21.0206 11.7493C21.1027 11.7493 21.1841 11.7655 21.26 11.797C21.3358 11.8284 21.4048 11.8745 21.4628 11.9326L24.6956 15.1654C24.8127 15.2826 24.8785 15.4415 24.8785 15.6072C24.8785 15.7729 24.8127 15.9318 24.6956 16.049L24.6933 16.0467Z" fill="#222222"/>
</svg>
