<svg width="36" height="36" viewBox="0 0 36 36" fill="none" xmlns="http://www.w3.org/2000/svg">
<rect width="36" height="36" rx="12" fill="#F5F5F5"/>
<path d="M26.2034 18.5469C26.0141 17.8399 25.6619 17.1871 25.1751 16.6407C24.6882 16.0943 24.0801 15.6694 23.3995 15.4002C22.719 15.131 21.9848 15.0249 21.2559 15.0904C20.527 15.1559 19.8235 15.3912 19.2018 15.7774L20.4823 10.6649C20.5141 10.5378 20.5051 10.404 20.4568 10.2824C20.4084 10.1607 20.3231 10.0573 20.2128 9.98673C19.6812 9.65107 19.0875 9.42577 18.4671 9.32423C17.8467 9.2227 17.2122 9.247 16.6013 9.3957C15.9905 9.5444 15.4158 9.81446 14.9115 10.1898C14.4071 10.5651 13.9834 11.0381 13.6656 11.5805C13.3478 12.123 13.1424 12.7238 13.0615 13.3472C12.9806 13.9707 13.026 14.604 13.1949 15.2096C13.3638 15.8152 13.6528 16.3806 14.0447 16.8722C14.4366 17.3638 14.9234 17.7715 15.476 18.0711L10.4081 19.5188C10.2822 19.5546 10.1707 19.6291 10.0894 19.7317C10.0081 19.8343 9.96107 19.9599 9.95495 20.0906C9.90685 21.1578 10.2247 22.2093 10.8558 23.0711C11.4869 23.933 12.3934 24.5534 13.4253 24.8297C13.8233 24.9366 14.2335 24.9909 14.6456 24.9914C15.2735 24.9898 15.8947 24.8621 16.4724 24.616C17.0501 24.3699 17.5726 24.0104 18.0088 23.5587C18.445 23.107 18.7862 22.5724 19.012 21.9865C19.2379 21.4006 19.3439 20.7753 19.3237 20.1477L23.1112 23.8133C23.2054 23.9044 23.3258 23.9636 23.4555 23.9826C23.5852 24.0015 23.7176 23.9792 23.8339 23.9188C24.7815 23.4271 25.533 22.6266 25.9638 21.6498C26.3947 20.6729 26.4792 19.5783 26.2034 18.5469ZM18.1909 19.5508C17.8842 19.5885 17.5731 19.5344 17.2972 19.3954C17.0212 19.2563 16.7926 19.0385 16.6404 18.7696C16.4882 18.5006 16.4191 18.1926 16.442 17.8844C16.4649 17.5762 16.5786 17.2817 16.7688 17.0382C16.959 16.7946 17.2172 16.6129 17.5107 16.5161C17.8042 16.4193 18.1198 16.4117 18.4176 16.4942C18.7154 16.5768 18.982 16.7458 19.1838 16.9799C19.3855 17.214 19.5134 17.5027 19.551 17.8094C19.6016 18.2207 19.4867 18.6352 19.2316 18.9618C18.9765 19.2884 18.6022 19.5002 18.1909 19.5508Z" fill="#222222"/>
</svg>
