<svg width="36" height="36" viewBox="0 0 36 36" fill="none" xmlns="http://www.w3.org/2000/svg">
<rect width="36" height="36" rx="12" fill="#F5F5F5"/>
<path d="M12.9687 11.6241C14.1404 10.6955 15.5467 10.11 17.0312 9.93265C17.0751 9.92768 17.1195 9.93207 17.1616 9.94553C17.2036 9.959 17.2424 9.98123 17.2752 10.0108C17.3081 10.0403 17.3343 10.0764 17.3522 10.1168C17.37 10.1572 17.3791 10.201 17.3788 10.2451V17.3748H15.4765C15.3212 15.3625 14.4208 13.4804 12.9515 12.0967C12.9186 12.0662 12.8927 12.0289 12.8755 11.9874C12.8583 11.946 12.8503 11.9013 12.8519 11.8565C12.8536 11.8116 12.8648 11.7676 12.885 11.7275C12.9051 11.6874 12.9337 11.6521 12.9687 11.6241ZM11.5937 13.0053C10.6824 14.1683 10.1071 15.5587 9.93039 17.0256C9.92518 17.0696 9.92939 17.1142 9.94275 17.1565C9.9561 17.1988 9.97829 17.2377 10.0078 17.2707C10.0374 17.3038 10.0736 17.3301 10.1142 17.3481C10.1547 17.366 10.1986 17.3751 10.2429 17.3748H14.221C14.0668 15.6888 13.295 14.1193 12.0538 12.9678C12.022 12.9382 11.9844 12.9155 11.9434 12.9013C11.9023 12.887 11.8588 12.8815 11.8155 12.885C11.7722 12.8886 11.7301 12.9011 11.6919 12.9218C11.6537 12.9425 11.6202 12.9709 11.5937 13.0053ZM23.0312 11.6241C21.8595 10.6955 20.4532 10.11 18.9687 9.93265C18.9248 9.92768 18.8803 9.93207 18.8383 9.94553C18.7962 9.959 18.7575 9.98123 18.7246 10.0108C18.6917 10.0403 18.6655 10.0764 18.6477 10.1168C18.6298 10.1572 18.6207 10.201 18.621 10.2451V17.3748H20.5195C20.6748 15.3625 21.5751 13.4804 23.0445 12.0967C23.0776 12.0664 23.1037 12.0294 23.1213 11.9881C23.1388 11.9468 23.1472 11.9022 23.1459 11.8573C23.1447 11.8125 23.1338 11.7685 23.114 11.7282C23.0942 11.6879 23.0659 11.6524 23.0312 11.6241ZM26.0671 17.0256C25.891 15.559 25.3166 14.1686 24.4062 13.0053C24.3796 12.9713 24.3463 12.9432 24.3083 12.9227C24.2703 12.9022 24.2285 12.8898 24.1855 12.8863C24.1425 12.8828 24.0992 12.8882 24.0584 12.9022C24.0176 12.9163 23.9801 12.9386 23.9484 12.9678C22.7063 14.1189 21.9336 15.6885 21.7788 17.3748H25.7562C25.8004 17.3749 25.8441 17.3656 25.8844 17.3476C25.9247 17.3295 25.9608 17.3031 25.9902 17.2701C26.0196 17.2371 26.0416 17.1983 26.0549 17.1561C26.0681 17.114 26.0723 17.0695 26.0671 17.0256ZM9.93273 18.9741C10.1088 20.4407 10.6832 21.8311 11.5937 22.9944C11.6202 23.0284 11.6536 23.0565 11.6916 23.077C11.7295 23.0975 11.7714 23.1098 11.8144 23.1134C11.8574 23.1169 11.9006 23.1115 11.9415 23.0974C11.9823 23.0834 12.0197 23.0611 12.0515 23.0319C13.2935 21.8808 14.0662 20.3112 14.221 18.6248H10.2437C10.1995 18.6248 10.1558 18.634 10.1154 18.6521C10.0751 18.6701 10.0391 18.6965 10.0097 18.7295C9.98029 18.7625 9.95824 18.8014 9.94498 18.8435C9.93171 18.8857 9.92754 18.9302 9.93273 18.9741ZM24.4062 22.9944C25.3175 21.8314 25.8927 20.4409 26.0695 18.9741C26.0747 18.93 26.0704 18.8854 26.0571 18.8432C26.0437 18.8009 26.0215 18.762 25.992 18.7289C25.9624 18.6959 25.9262 18.6695 25.8857 18.6516C25.8451 18.6337 25.8013 18.6245 25.757 18.6248H21.7788C21.933 20.3108 22.7048 21.8804 23.946 23.0319C23.9778 23.0615 24.0154 23.0841 24.0565 23.0984C24.0975 23.1126 24.1411 23.1182 24.1844 23.1146C24.2277 23.1111 24.2698 23.0986 24.3079 23.0779C24.3461 23.0572 24.3796 23.0287 24.4062 22.9944ZM12.9687 24.3756C14.1404 25.3042 15.5467 25.8897 17.0312 26.067C17.0751 26.072 17.1195 26.0676 17.1616 26.0541C17.2036 26.0407 17.2424 26.0184 17.2752 25.9889C17.3081 25.9594 17.3343 25.9232 17.3522 25.8828C17.37 25.8424 17.3791 25.7987 17.3788 25.7545V18.6248H15.4765C15.3212 20.6372 14.4208 22.5192 12.9515 23.903C12.9186 23.9335 12.8927 23.9708 12.8755 24.0122C12.8583 24.0537 12.8503 24.0984 12.8519 24.1432C12.8536 24.1881 12.8648 24.232 12.885 24.2721C12.9051 24.3122 12.9337 24.3475 12.9687 24.3756ZM20.5234 18.6248H18.6249V25.7561C18.6246 25.8003 18.6337 25.844 18.6516 25.8844C18.6694 25.9248 18.6957 25.961 18.7285 25.9905C18.7614 26.02 18.8001 26.0422 18.8422 26.0557C18.8842 26.0692 18.9287 26.0736 18.9726 26.0686C20.4571 25.8913 21.8634 25.3058 23.0351 24.3772C23.0701 24.3491 23.0986 24.3138 23.1188 24.2737C23.1389 24.2336 23.1502 24.1896 23.1518 24.1448C23.1534 24.0999 23.1454 24.0553 23.1282 24.0138C23.111 23.9723 23.0851 23.9351 23.0523 23.9045C21.5811 22.521 20.6793 20.6383 20.5234 18.6248Z" fill="#222222"/>
</svg>
