<svg width="36" height="36" viewBox="0 0 36 36" fill="none" xmlns="http://www.w3.org/2000/svg">
<rect width="36" height="36" rx="12" fill="#F5F5F5"/>
<path d="M24.5499 18.532L19.8788 23.2562C19.7644 23.372 19.6281 23.464 19.4779 23.5267C19.3277 23.5895 19.1665 23.6218 19.0038 23.6219H13.8842L11.567 25.9422C11.509 26.0002 11.44 26.0463 11.3642 26.0777C11.2883 26.1092 11.207 26.1253 11.1249 26.1253C11.0427 26.1253 10.9614 26.1092 10.8855 26.0777C10.8097 26.0463 10.7407 26.0002 10.6827 25.9422C10.6246 25.8841 10.5785 25.8152 10.5471 25.7393C10.5157 25.6634 10.4995 25.5821 10.4995 25.5C10.4995 25.4179 10.5157 25.3365 10.5471 25.2607C10.5785 25.1848 10.6246 25.1159 10.6827 25.0578L12.4475 23.2937L17.742 18H24.328C24.3896 18.0001 24.4498 18.0184 24.501 18.0526C24.5522 18.0868 24.5922 18.1354 24.6159 18.1922C24.6396 18.249 24.646 18.3116 24.6342 18.3721C24.6225 18.4325 24.5931 18.4882 24.5499 18.532ZM24.9295 10.3883C23.9706 9.59908 22.7522 9.19504 21.5117 9.25482C20.2711 9.31461 19.0973 9.83395 18.2186 10.7117L17.4686 11.4523C17.4095 11.5102 17.3758 11.5892 17.3749 11.6719V16.5937L21.6717 12.2969C21.7899 12.1846 21.9472 12.1229 22.1102 12.125C22.2732 12.1271 22.4289 12.1928 22.5442 12.308C22.6594 12.4233 22.7251 12.579 22.7272 12.742C22.7293 12.9049 22.6676 13.0623 22.5553 13.1805L18.9928 16.75H25.8975C25.9549 16.7501 26.0112 16.7344 26.0603 16.7047C26.1093 16.6749 26.1492 16.6322 26.1756 16.5812C26.7112 15.563 26.8797 14.3913 26.6527 13.2634C26.4258 12.1355 25.8172 11.1202 24.9295 10.3883ZM12.9085 21.0648L16.1249 17.8484V13.5281C16.1248 13.4665 16.1065 13.4063 16.0723 13.3551C16.0381 13.3039 15.9895 13.2639 15.9326 13.2402C15.8758 13.2165 15.8132 13.2101 15.7528 13.2219C15.6923 13.2336 15.6367 13.263 15.5928 13.3062L12.7413 16.125C12.6248 16.2407 12.5325 16.3784 12.4696 16.5301C12.4067 16.6818 12.3745 16.8444 12.3749 17.0086V20.8437C12.3748 20.9056 12.3931 20.966 12.4274 21.0175C12.4618 21.0689 12.5106 21.109 12.5677 21.1327C12.6249 21.1564 12.6877 21.1625 12.7484 21.1505C12.809 21.1384 12.8647 21.1086 12.9085 21.0648Z" fill="#222222"/>
</svg>
