<svg width="36" height="36" viewBox="0 0 36 36" fill="none" xmlns="http://www.w3.org/2000/svg">
<rect width="36" height="36" rx="12" fill="#F5F5F5"/>
<path d="M26.1198 17.7305C25.9816 13.4735 22.5261 10.018 18.2691 9.87971C17.1576 9.84388 16.0506 10.0364 15.0165 10.4453C13.9824 10.8543 13.0431 11.471 12.2568 12.2573C11.4705 13.0436 10.8538 13.9829 10.4448 15.017C10.0359 16.0511 9.84339 17.1581 9.87922 18.2696C10.0175 22.5266 13.473 25.9821 17.73 26.1203C18.8415 26.1562 19.9485 25.9637 20.9826 25.5547C22.0167 25.1458 22.9559 24.5291 23.7423 23.7427C24.5286 22.9564 25.1453 22.0172 25.5542 20.9831C25.9632 19.9489 26.1557 18.842 26.1198 17.7305ZM23.498 19.0524L21.6659 21.6172C21.6043 21.7033 21.5231 21.7735 21.4289 21.8219C21.3348 21.8704 21.2304 21.8956 21.1245 21.8956C21.0187 21.8956 20.9143 21.8704 20.8201 21.8219C20.726 21.7735 20.6447 21.7033 20.5831 21.6172L17.9995 18L15.4159 21.6172C15.3543 21.7033 15.2731 21.7735 15.1789 21.8219C15.0848 21.8704 14.9804 21.8956 14.8745 21.8956C14.7687 21.8956 14.6643 21.8704 14.5701 21.8219C14.476 21.7735 14.3947 21.7033 14.3331 21.6172L12.5011 19.0524C12.4301 18.9529 12.3878 18.8357 12.379 18.7138C12.3701 18.5919 12.395 18.4698 12.451 18.3611C12.5069 18.2524 12.5917 18.1612 12.696 18.0975C12.8004 18.0338 12.9203 18.0001 13.0425 18H17.9995L15.6261 14.6774C15.5551 14.5779 15.5128 14.4607 15.504 14.3388C15.4951 14.2169 15.52 14.0948 15.576 13.9861C15.6319 13.8774 15.7167 13.7862 15.821 13.7225C15.9254 13.6588 16.0453 13.6251 16.1675 13.625H19.8316C19.9538 13.6251 20.0737 13.6588 20.178 13.7225C20.2824 13.7862 20.3672 13.8774 20.4231 13.9861C20.479 14.0948 20.5039 14.2169 20.4951 14.3388C20.4863 14.4607 20.444 14.5779 20.373 14.6774L17.9995 18H22.9566C23.0788 18.0001 23.1987 18.0338 23.303 18.0975C23.4074 18.1612 23.4922 18.2524 23.5481 18.3611C23.604 18.4698 23.6289 18.5919 23.6201 18.7138C23.6113 18.8357 23.569 18.9529 23.498 19.0524Z" fill="#222222"/>
</svg>
